<svg width="475" height="394" viewBox="0 0 475 394" fill="none" xmlns="http://www.w3.org/2000/svg">
<g clip-path="url(#clip0)">
<path opacity="0.1" d="M275.977 52.2738C245.526 51.218 216.524 41.4154 188.829 30.6884C161.135 19.9614 133.704 8.07529 103.982 2.39269C84.8651 -1.26276 63.0005 -1.77893 47.6006 8.4413C32.7748 18.2955 27.985 35.2589 25.4113 51.0162C23.4728 62.8695 22.3342 75.3468 27.6415 86.4398C31.3304 94.1449 37.8705 100.621 42.3968 108.002C58.1448 133.679 47.0125 165.344 29.9518 190.416C21.9531 202.18 12.6605 213.409 6.48265 225.919C0.304836 238.429 -2.55117 252.784 2.85501 265.557C8.20943 278.226 20.9744 287.724 34.8027 294.411C62.8875 307.996 95.9692 311.881 128.251 314.082C199.689 318.957 271.503 316.846 343.129 314.734C369.637 313.95 396.259 313.157 422.335 309.07C436.817 306.799 451.765 303.2 462.281 294.5C475.625 283.459 478.933 264.764 469.988 250.916C454.988 227.693 413.527 221.926 403.03 197.004C397.261 183.283 403.185 168.005 411.574 155.279C429.566 127.987 459.722 104.041 461.307 72.8457C462.399 51.4198 447.902 29.961 425.487 19.8206C401.994 9.19679 369.412 10.5295 352.087 28.1216C334.231 46.2346 302.867 53.2029 275.977 52.2738Z" fill="#26B1FF"/>
<path opacity="0.1" d="M227.487 385.774C306.476 385.774 370.508 377.135 370.508 366.478C370.508 355.822 306.476 347.183 227.487 347.183C148.499 347.183 84.4658 355.822 84.4658 366.478C84.4658 377.135 148.499 385.774 227.487 385.774Z" fill="#26B1FF"/>
<path d="M305.537 135.998H303.523C302.928 135.998 302.445 136.479 302.445 137.072V169.188C302.445 169.781 302.928 170.262 303.523 170.262H305.537C306.132 170.262 306.614 169.781 306.614 169.188V137.072C306.614 136.479 306.132 135.998 305.537 135.998Z" fill="#3A3768"/>
<path d="M165.173 109.152H164.99C164.395 109.152 163.912 109.633 163.912 110.226V119.358C163.912 119.952 164.395 120.433 164.99 120.433H165.173C165.768 120.433 166.251 119.952 166.251 119.358V110.226C166.251 109.633 165.768 109.152 165.173 109.152Z" fill="#3A3768"/>
<path d="M165.385 129.808H164.905C164.31 129.808 163.827 130.289 163.827 130.883V148.367C163.827 148.961 164.31 149.442 164.905 149.442H165.385C165.98 149.442 166.462 148.961 166.462 148.367V130.883C166.462 130.289 165.98 129.808 165.385 129.808Z" fill="#3A3768"/>
<path d="M165.3 156.312H164.948C164.353 156.312 163.87 156.793 163.87 157.386V175.039C163.87 175.633 164.353 176.114 164.948 176.114H165.3C165.896 176.114 166.378 175.633 166.378 175.039V157.386C166.378 156.793 165.896 156.312 165.3 156.312Z" fill="#3A3768"/>
<path d="M286.349 71.8748H183.58C173.448 71.8748 165.234 80.0662 165.234 90.1708V336.25C165.234 346.354 173.448 354.546 183.58 354.546H286.349C296.48 354.546 304.694 346.354 304.694 336.25V90.1708C304.694 80.0662 296.48 71.8748 286.349 71.8748Z" fill="#3A3768"/>
<path d="M285.021 79.2186H269.024V81.1378C269.024 82.3324 268.788 83.5154 268.329 84.619C267.871 85.7227 267.198 86.7254 266.351 87.5699C265.504 88.4144 264.498 89.0842 263.391 89.5409C262.285 89.9977 261.098 90.2325 259.9 90.2318H209.024C207.826 90.2325 206.64 89.9977 205.533 89.5409C204.426 89.0842 203.42 88.4144 202.573 87.5699C201.726 86.7254 201.054 85.7227 200.595 84.619C200.137 83.5154 199.901 82.3324 199.901 81.1378V79.2186H184.924C181.987 79.2186 179.17 80.3823 177.093 82.4539C175.016 84.5254 173.849 87.3351 173.849 90.2647V336.137C173.849 339.067 175.016 341.876 177.093 343.948C179.17 346.019 181.987 347.183 184.924 347.183H285.021C287.959 347.183 290.776 346.019 292.853 343.948C294.93 341.876 296.097 339.067 296.097 336.137V90.2835C296.099 88.8313 295.815 87.3929 295.259 86.0505C294.704 84.7082 293.888 83.4882 292.859 82.4605C291.831 81.4328 290.609 80.6175 289.264 80.0612C287.919 79.5049 286.477 79.2186 285.021 79.2186V79.2186Z" fill="#26B1FF"/>
<path d="M239.165 80.3167H223.333C222.327 80.3167 221.512 81.1297 221.512 82.1326V82.4423C221.512 83.4453 222.327 84.2583 223.333 84.2583H239.165C240.171 84.2583 240.986 83.4453 240.986 82.4423V82.1326C240.986 81.1297 240.171 80.3167 239.165 80.3167Z" fill="#E6E8EC"/>
<path d="M246.176 84.5258C247.416 84.5258 248.42 83.5237 248.42 82.2875C248.42 81.0513 247.416 80.0492 246.176 80.0492C244.936 80.0492 243.932 81.0513 243.932 82.2875C243.932 83.5237 244.936 84.5258 246.176 84.5258Z" fill="#E6E8EC"/>
<path d="M352.978 59.4773C352.978 59.4773 313.361 57.0935 318.029 84.7792C318.029 84.7792 317.088 89.6734 321.548 91.893C321.548 91.893 321.619 89.8424 325.613 90.5416C327.036 90.7767 328.48 90.846 329.919 90.748C331.859 90.6208 333.705 89.8682 335.179 88.6035V88.6035C335.179 88.6035 346.316 84.0143 350.645 65.8638C350.645 65.8638 353.849 61.9033 353.722 60.885L347.036 63.7334C347.036 63.7334 349.322 68.5432 347.506 72.5412C347.506 72.5412 347.29 63.907 346.005 64.0947C345.747 64.1322 342.533 65.7605 342.533 65.7605C342.533 65.7605 346.462 74.1366 343.498 80.2275C343.498 80.2275 344.622 69.904 341.305 66.3659L336.6 69.1063C336.6 69.1063 341.192 77.7592 338.077 84.8214C338.077 84.8214 338.877 73.9911 335.607 69.7726L331.344 73.0902C331.344 73.0902 335.659 81.6164 333.029 87.4727C333.029 87.4727 332.685 74.8686 330.422 73.9161C330.422 73.9161 326.691 77.2008 326.122 78.5429C326.122 78.5429 329.076 84.7369 327.241 88.0029C327.241 88.0029 326.117 79.6034 325.195 79.5564C325.195 79.5564 321.478 85.1217 321.092 88.9414C321.092 88.9414 321.252 83.2682 324.296 79.0309C324.296 79.0309 320.701 79.6456 318.603 81.9684C318.603 81.9684 319.181 78.0361 325.213 77.6888C325.213 77.6888 328.286 73.4656 329.105 73.2122C329.105 73.2122 323.11 72.7101 319.473 74.3196C319.473 74.3196 322.673 70.6079 330.206 72.2972L334.417 68.867C334.417 68.867 326.521 67.7924 323.171 68.9796C323.171 68.9796 327.025 65.6948 335.551 68.088L340.133 65.357C340.133 65.357 333.4 63.9117 329.392 64.4185C329.392 64.4185 333.626 62.1426 341.479 64.6109L344.773 63.1421C344.773 63.1421 339.842 62.1755 338.397 62.0206C336.953 61.8658 336.877 61.4716 336.877 61.4716C340.001 60.9521 343.209 61.3078 346.142 62.4992C346.142 62.4992 353.096 59.9137 352.978 59.4773Z" fill="#26B1FF"/>
<path d="M312.34 47.1642C312.34 47.1642 294.461 46.0896 296.55 58.5998C296.55 58.5998 296.131 60.81 298.14 61.8142C298.14 61.8142 298.173 60.8757 299.98 61.1994C300.621 61.3072 301.274 61.3387 301.923 61.2933C302.801 61.2354 303.635 60.8926 304.299 60.3172V60.3172C304.299 60.3172 309.334 58.2432 311.291 50.0407C311.291 50.0407 312.735 48.2529 312.679 47.793L309.658 49.0787C309.658 49.0787 310.689 51.2514 309.879 53.058C309.879 53.058 309.781 49.1585 309.202 49.2477C309.084 49.2477 307.63 50.0032 307.63 50.0032C307.63 50.0032 309.409 53.79 308.068 56.5398C308.068 56.5398 308.576 51.8755 307.075 50.2753L304.948 51.5329C304.948 51.5329 307.023 55.4418 305.616 58.6326C305.616 58.6326 305.979 53.7384 304.501 51.8332L302.577 53.3348C302.577 53.3348 304.525 57.1874 303.339 59.8339C303.339 59.8339 303.179 54.1372 302.158 53.7055C302.158 53.7055 300.474 55.1884 300.215 55.7984C300.215 55.7984 301.551 58.6139 300.723 60.0732C300.723 60.0732 300.215 56.277 299.782 56.2583C299.782 56.2583 298.102 58.7734 297.928 60.4815C298.012 58.8889 298.512 57.3458 299.377 56.0049C298.408 56.188 297.514 56.6495 296.804 57.3328C296.804 57.3328 297.067 55.5544 299.792 55.3995C299.792 55.3995 301.203 53.4897 301.551 53.3724C301.551 53.3724 298.841 53.1471 297.199 53.8745C297.199 53.8745 298.643 52.1992 302.045 52.9594L303.927 51.4109C303.927 51.4109 300.356 50.9417 298.846 51.4625C298.846 51.4625 300.587 49.9797 304.44 51.059L306.51 49.8248C306.51 49.8248 303.466 49.1726 301.655 49.4072C301.655 49.4072 303.57 48.3796 307.117 49.4917L308.599 48.83C308.599 48.83 306.369 48.3936 305.715 48.3233C305.061 48.2529 305.028 48.0746 305.028 48.0746C306.441 47.8402 307.891 48.0027 309.216 48.5438C309.216 48.5438 312.397 47.3613 312.34 47.1642Z" fill="#26B1FF"/>
<path opacity="0.1" d="M406.602 365.024C413.599 365.024 419.272 364.068 419.272 362.889C419.272 361.71 413.599 360.754 406.602 360.754C399.604 360.754 393.931 361.71 393.931 362.889C393.931 364.068 399.604 365.024 406.602 365.024Z" fill="#26B1FF"/>
<path opacity="0.1" d="M42.8584 382.546C49.8563 382.546 55.5292 381.59 55.5292 380.41C55.5292 379.231 49.8563 378.275 42.8584 378.275C35.8604 378.275 30.1875 379.231 30.1875 380.41C30.1875 381.59 35.8604 382.546 42.8584 382.546Z" fill="#26B1FF"/>
<path opacity="0.1" d="M91.872 394C98.87 394 104.543 393.044 104.543 391.865C104.543 390.686 98.87 389.73 91.872 389.73C84.8741 389.73 79.2012 390.686 79.2012 391.865C79.2012 393.044 84.8741 394 91.872 394Z" fill="#26B1FF"/>
<path d="M378.865 388.96C389.313 388.96 397.784 387.532 397.784 385.769C397.784 384.007 389.313 382.578 378.865 382.578C368.416 382.578 359.945 384.007 359.945 385.769C359.945 387.532 368.416 388.96 378.865 388.96Z" fill="#26B1FF"/>
<path d="M386.689 380.551C387.551 379.848 388.18 378.901 388.491 377.834C388.726 376.76 388.265 375.488 387.23 375.071C386.073 374.629 384.835 375.432 383.899 376.239C382.963 377.046 381.885 377.97 380.657 377.797C381.289 377.227 381.762 376.503 382.03 375.696C382.298 374.89 382.352 374.027 382.186 373.194C382.131 372.848 381.983 372.524 381.758 372.255C381.118 371.57 379.951 371.861 379.185 372.405C376.738 374.118 376.056 377.436 376.042 380.415C375.792 379.341 376.004 378.219 375.994 377.131C375.985 376.042 375.689 374.784 374.752 374.207C374.175 373.898 373.526 373.746 372.87 373.766C371.769 373.724 370.546 373.836 369.793 374.639C368.852 375.634 369.106 377.304 369.915 378.393C370.725 379.481 371.962 380.181 373.101 380.936C374.012 381.478 374.788 382.217 375.373 383.099C375.444 383.223 375.501 383.353 375.543 383.489H382.417C383.967 382.706 385.404 381.718 386.689 380.551V380.551Z" fill="#26B1FF"/>
<path d="M92.5259 339.394C92.5259 339.394 95.1137 342.767 91.3355 347.84C87.5573 352.913 84.4425 357.225 85.6894 360.402C85.6894 360.402 91.392 350.946 96.0407 350.815C100.689 350.684 97.631 345.081 92.5259 339.394Z" fill="#26B1FF"/>
<path opacity="0.1" d="M92.5261 339.394C92.7517 339.72 92.9292 340.077 93.0531 340.454C97.5794 345.757 99.9931 350.707 95.6409 350.829C91.5898 350.946 86.7294 358.173 85.5625 359.998C85.6001 360.139 85.6472 360.275 85.699 360.416C85.699 360.416 91.4016 350.961 96.0502 350.829C100.699 350.698 97.6311 345.081 92.5261 339.394Z" fill="black"/>
<path d="M97.3302 343.692C97.3302 344.879 97.1984 345.841 97.0337 345.841C96.8691 345.841 96.7373 344.879 96.7373 343.692C96.7373 342.505 96.902 343.063 97.0667 343.063C97.2313 343.063 97.3302 342.505 97.3302 343.692Z" fill="#FFD037"/>
<path d="M98.981 345.109C97.9365 345.677 97.0237 346.019 96.9484 345.874C96.8731 345.728 97.6495 345.151 98.694 344.583C99.7385 344.016 99.3292 344.429 99.4045 344.583C99.4797 344.738 100.026 344.541 98.981 345.109Z" fill="#FFD037"/>
<path d="M78.8763 339.394C78.8763 339.394 76.2885 342.767 80.0667 347.84C83.8449 352.913 86.9597 357.225 85.7128 360.402C85.7128 360.402 80.0149 350.946 75.3615 350.815C70.7082 350.684 73.7618 345.081 78.8763 339.394Z" fill="#26B1FF"/>
<path opacity="0.1" d="M78.8767 339.394C78.6504 339.72 78.4714 340.077 78.345 340.454C73.8187 345.757 71.4097 350.707 75.7572 350.829C79.813 350.946 84.6734 358.173 85.8403 359.998C85.8017 360.14 85.7546 360.28 85.6991 360.416C85.6991 360.416 80.0012 350.961 75.3479 350.829C70.6945 350.698 73.7623 345.081 78.8767 339.394Z" fill="black"/>
<path d="M74.0684 343.692C74.0684 344.879 74.2048 345.841 74.3695 345.841C74.5342 345.841 74.6659 344.879 74.6659 343.692C74.6659 342.505 74.5012 343.063 74.3366 343.063C74.1719 343.063 74.0684 342.505 74.0684 343.692Z" fill="#FFD037"/>
<path d="M72.4209 345.109C73.4654 345.677 74.3735 346.019 74.4535 345.874C74.5335 345.728 73.7477 345.151 72.7032 344.583C71.6587 344.016 72.0727 344.429 71.9927 344.583C71.9128 344.738 71.3764 344.541 72.4209 345.109Z" fill="#FFD037"/>
<path d="M74.8916 359.975C74.8916 359.975 82.1187 359.749 84.3018 358.206C86.485 356.662 95.42 354.808 95.9564 357.291C96.4928 359.773 106.821 369.627 98.6618 369.693C90.5032 369.759 79.7002 368.426 77.5265 367.107C75.3527 365.789 74.8916 359.975 74.8916 359.975Z" fill="#A8A8A8"/>
<path opacity="0.2" d="M98.803 368.829C90.6443 368.895 79.8414 367.562 77.6676 366.244C76.0161 365.235 75.3527 361.626 75.1316 359.965H74.8916C74.8916 359.965 75.3621 365.775 77.5218 367.098C79.6814 368.421 90.4985 369.749 98.6571 369.684C101.01 369.684 101.824 368.829 101.781 367.591C101.452 368.351 100.553 368.815 98.803 368.829Z" fill="black"/>
<path d="M132.793 208.675C132.86 208.739 132.946 208.781 133.038 208.793C133.131 208.804 133.225 208.786 133.306 208.741C133.133 208.743 132.96 208.721 132.793 208.675V208.675Z" fill="url(#paint0_linear)"/>
<path d="M189.174 115.294C188.181 115.003 186.769 114.53 185.061 113.934C186.834 111.625 188.129 108.988 188.872 106.177L188.727 106.233C188.774 106.06 188.825 105.891 188.872 105.717C185.607 107.059 181.989 104.779 179.688 101.865C177.387 98.9505 175.821 95.3232 173.303 92.6344C172.252 91.5694 171.121 90.5859 169.92 89.6922C169.177 89.1104 168.372 88.505 167.464 88.4769C165.996 88.4346 164.843 89.8846 163.427 90.321C162.493 90.5338 161.52 90.4982 160.604 90.2178C156.948 89.3684 153.424 87.8058 149.712 87.4023C147.717 87.1519 145.69 87.382 143.802 88.0733C141.92 88.796 141.073 90.2272 139.568 91.3581C137.935 92.5875 134.684 92.5593 132.759 92.7658C130.426 93.033 128.077 93.1318 125.73 93.0614C124.38 92.9397 123.02 92.9902 121.683 93.2116C118.889 93.831 116.644 96.074 114.551 98.2326C113.976 98.7254 113.565 99.3796 113.37 100.11C113.344 100.315 113.344 100.523 113.37 100.729C113.348 101.29 113.444 101.849 113.652 102.371C114.284 104.311 115.187 106.153 116.334 107.843C117.19 109.082 118.183 110.245 118.686 111.709C118.917 112.43 119.04 113.181 119.049 113.938C119.022 114.742 118.939 115.544 118.799 116.336C118.429 118.521 117.822 120.659 116.988 122.713C116.545 123.802 116.047 124.886 115.929 126.078C115.915 126.315 115.915 126.553 115.929 126.791C115.788 130.465 119.463 133.116 120.164 136.772C120.219 137.074 120.254 137.38 120.267 137.687C120.187 139.968 118.903 142.196 117.011 143.079C117.176 143.144 117.345 143.201 117.515 143.262C117.352 143.365 117.184 143.459 117.011 143.543C117.355 143.675 117.708 143.787 118.065 143.89C115.902 145.781 114.085 148.032 112.697 150.544C106.364 162.524 63.1989 186.024 63.1989 186.024C63.1989 186.024 63.4436 186.16 63.8388 186.395C63.6788 186.494 63.5094 186.606 63.3212 186.733C59.5854 189.248 50.8151 196.587 58.7432 205.841C58.7432 205.841 64.9304 195.963 69.2638 191.763C69.4614 191.576 69.6496 191.402 69.8331 191.238C69.93 191.386 69.995 191.552 70.0242 191.727C70.0533 191.901 70.0459 192.08 70.0025 192.251L98.3885 176.123C98.3885 176.123 108.476 168.981 111.29 167.367C112.259 166.813 114.729 165.274 117.684 164.594L117.355 164.739C118.415 164.443 119.51 164.286 120.611 164.27C125.636 164.35 131.075 168.071 132.872 182.81C135.277 202.547 134.161 206.103 133.39 206.591C133.294 206.584 133.199 206.567 133.107 206.54C133.13 206.561 133.156 206.58 133.183 206.596C133.077 206.589 132.973 206.571 132.872 206.54C132.926 206.591 132.993 206.628 133.066 206.646C133.138 206.664 133.214 206.663 133.286 206.643C133.339 206.658 133.394 206.663 133.448 206.656C133.502 206.65 133.554 206.633 133.602 206.606V206.606C133.71 206.606 133.837 206.606 133.983 206.606C133.983 206.784 133.954 206.972 133.94 207.155C133.903 207.155 133.714 207.262 133.94 207.277C133.884 208.389 133.889 209.623 133.94 210.866C131.442 211.007 128.948 211.157 126.76 211.293L126.958 210.247L127.047 209.778C128.962 209.623 130.783 209.055 130.995 207.478C131.465 204.025 126.76 202.181 122.784 201.951C118.809 201.721 94.869 203.335 94.869 203.335C94.869 203.335 91.279 208.027 102.661 209.487C102.999 209.665 103.352 209.862 103.71 210.069C108.166 212.64 114.216 217.37 117.11 219.702L117.515 220.026L116.216 221.072C123.274 222.687 130.059 249.875 133.809 262.315C137.559 274.755 145.774 274.295 152.577 272.455C158.953 270.724 159.767 252.005 159.842 249.654C159.842 249.495 159.842 249.415 159.842 249.415L171.177 263.544L172.038 264.619C172.372 264.792 172.696 264.957 173.016 265.111C181.603 269.246 191.089 261.325 188.388 252.315C185.664 243.212 181.429 229.758 178.606 224.071C176.253 219.308 173.19 211.401 171.337 206.437C171.577 206.338 171.811 206.225 172.038 206.099C172.038 206.099 171.995 205.878 171.92 205.47L172.038 205.409C172.038 205.409 169.309 191.073 169.158 180.895C169.158 180.717 169.158 180.539 169.158 180.36C169.158 180.182 169.158 180.14 169.158 180.027C171.21 179.558 172.508 179.37 172.508 179.37L172.546 178.929L172.306 178.981L173.444 165.776C173.444 165.776 177.632 156.771 174.428 153.017C173.452 151.915 172.801 150.566 172.546 149.118C172.009 145.664 172.546 139.916 180.013 135.134C191.507 127.762 195.968 121.77 195.968 121.77C195.968 121.77 196.212 117.369 189.174 115.294ZM166.344 124.454V118.354C168.476 118.251 170.654 118.499 172.795 118.354C173.848 118.28 174.891 118.104 175.91 117.828L176.427 118.19C173.295 120.624 169.916 122.723 166.344 124.454ZM133.757 220.092C134.599 220.683 135.446 221.298 136.279 221.912C136.796 224.92 137.253 227.046 137.286 227.191C136.334 224.72 135.153 222.343 133.757 220.092V220.092Z" fill="url(#paint1_linear)"/>
<path d="M152.182 216.239L151.674 218.989L151.283 221.091L150.573 224.939L143.684 229.749C143.684 229.749 143.063 229.219 142.038 228.383C139.215 226.065 133.281 221.345 128.924 218.811C127.804 218.098 126.591 217.541 125.32 217.154L152.182 216.239Z" fill="#FFBDC6"/>
<path opacity="0.1" d="M152.182 216.239L151.674 218.989C150.155 219.071 148.631 218.993 147.129 218.754L131.056 218.984C130.298 218.937 129.588 218.881 128.924 218.811C127.804 218.098 126.591 217.541 125.32 217.154L152.182 216.239Z" fill="black"/>
<path d="M147.129 218.285C147.129 218.285 155.16 219.66 155.631 216.239C156.101 212.818 151.495 210.97 147.594 210.74C143.694 210.51 120.272 212.115 120.272 212.115C120.272 212.115 116.141 217.609 131.061 218.529L147.129 218.285Z" fill="#474463"/>
<path opacity="0.1" d="M152.182 216.239L151.674 218.989L151.283 221.091L150.573 224.939L143.684 229.749C143.684 229.749 143.063 229.219 142.038 228.383C139.215 226.065 133.281 221.345 128.924 218.811C127.804 218.098 126.591 217.541 125.32 217.154L152.182 216.239Z" fill="black"/>
<path opacity="0.1" d="M152.182 216.239L151.674 218.989C150.155 219.071 148.631 218.993 147.129 218.754L131.056 218.984C130.298 218.937 129.588 218.881 128.924 218.811C127.804 218.098 126.591 217.541 125.32 217.154L152.182 216.239Z" fill="black"/>
<path opacity="0.1" d="M147.129 218.276C147.129 218.276 155.166 219.646 155.627 216.211C156.088 212.776 151.491 210.946 147.591 210.716C143.69 210.486 120.268 212.091 120.268 212.091C120.268 212.091 116.137 217.586 131.057 218.501L147.129 218.276Z" fill="black"/>
<path d="M164.693 105.403H122.677V155.091H164.693V105.403Z" fill="#474463"/>
<path opacity="0.1" d="M164.693 105.628H122.677V155.317H164.693V105.628Z" fill="black"/>
<path d="M73.433 190.463C72.7414 190.637 71.8568 191.303 70.8734 192.27C66.6388 196.451 60.574 206.263 60.574 206.263C52.8199 197.052 61.4021 189.774 65.0579 187.272C65.9472 186.667 66.5447 186.334 66.5447 186.334L73.433 190.463Z" fill="#FFBDC6"/>
<path d="M151.721 121.085C151.721 121.085 153.787 135.51 160.906 138.945C168.025 142.379 151.721 148.799 151.721 148.799L129.452 140.549C129.452 140.549 142.081 136.425 139.554 124.29L151.721 121.085Z" fill="#FFBDC6"/>
<path d="M127.842 207.868L127.339 210.608L126.929 212.72L126.219 216.568L119.331 221.373C119.331 221.373 118.71 220.847 117.684 220.012C114.861 217.694 108.928 212.973 104.566 210.439C103.446 209.726 102.233 209.169 100.962 208.783L127.842 207.868Z" fill="#FFBDC6"/>
<path opacity="0.1" d="M127.843 207.868L127.339 210.608C125.82 210.69 124.297 210.612 122.794 210.374L106.722 210.604C105.964 210.557 105.249 210.5 104.586 210.43C103.465 209.717 102.253 209.159 100.981 208.773L127.843 207.868Z" fill="black"/>
<path d="M122.794 209.928C122.794 209.928 130.83 211.298 131.286 207.868C131.743 204.438 127.155 202.598 123.25 202.368C119.345 202.138 95.9322 203.743 95.9322 203.743C95.9322 203.743 91.7964 209.238 106.721 210.158L122.794 209.928Z" fill="#474463"/>
<path opacity="0.1" d="M126.93 212.72L126.22 216.568L119.331 221.373C119.331 221.373 118.71 220.847 117.685 220.012L126.794 212.56L126.93 212.72Z" fill="black"/>
<path d="M172.423 265.14C172.108 264.985 171.793 264.825 171.482 264.67L170.635 263.605L159.527 249.556C159.527 249.556 159.527 249.64 159.527 249.8C159.451 252.146 158.651 270.738 152.412 272.455C145.755 274.285 137.723 274.745 134.063 262.38C130.402 250.016 123.711 222.996 116.842 221.392L127.061 213.034C127.061 213.034 133.827 220.927 136.584 228.482C136.481 228.013 131.809 206.239 135.643 202.387H169.167C169.167 202.387 174.343 217.089 177.891 224.371C180.653 230.026 184.798 243.395 187.466 252.442C190.11 261.376 180.827 269.264 172.423 265.14Z" fill="#474463"/>
<path opacity="0.1" d="M171.469 206.493C166.293 209.548 143.572 208.304 136.18 207.807L134.166 207.661C133.95 207.661 134.199 207.539 134.199 207.539L134.406 205.461L139.916 191.496L169.417 174.434C168.82 176.231 168.622 178.981 168.669 182.13C168.805 192.247 171.469 206.493 171.469 206.493Z" fill="black"/>
<path d="M171.468 205.803C166.293 208.858 143.572 207.614 136.18 207.117L134.166 206.976L133.832 206.948L134.199 206.854L136.015 206.385L139.916 190.815L169.417 173.758C168.819 175.555 168.622 178.305 168.669 181.454C168.805 191.561 171.468 205.803 171.468 205.803Z" fill="#F2F1F2"/>
<path opacity="0.1" d="M168.65 181.444C162.651 182.824 149.448 186.874 144.376 196.648C140.993 203.156 138.147 205.949 136.161 207.117L134.147 206.976C134.161 206.936 134.172 206.895 134.18 206.854L135.997 206.385L139.897 190.815L169.398 173.758C168.805 175.546 168.603 178.296 168.65 181.444Z" fill="black"/>
<path opacity="0.1" d="M66.5444 186.343L73.4327 190.463C72.7411 190.637 71.8565 191.303 70.8731 192.27C70.2991 190.599 66.695 188.267 65.0576 187.272C65.9469 186.677 66.5444 186.343 66.5444 186.343Z" fill="black"/>
<path opacity="0.1" d="M132.92 207.244C132.844 207.283 132.758 207.298 132.674 207.286C132.59 207.274 132.511 207.236 132.449 207.178C132.602 207.223 132.761 207.245 132.92 207.244V207.244Z" fill="black"/>
<path d="M148.507 138.029C148.507 138.029 142.306 138.715 137.944 134.135C137.944 134.135 119.594 139.404 113.379 151.309C107.163 163.214 64.916 186.573 64.916 186.573C64.916 186.573 72.2654 190.693 71.5738 192.753L99.3574 176.724C99.3574 176.724 109.238 169.629 111.981 168.024C114.724 166.419 129.894 156.574 133.107 183.364C136.321 210.153 133.107 206.948 133.107 206.948C133.107 206.948 137.699 208.553 144.357 195.728C151.015 182.904 171.675 179.929 171.675 179.929L172.823 166.424C172.823 166.424 176.921 157.47 173.764 153.754C172.808 152.654 172.171 151.313 171.924 149.878C171.402 146.448 171.924 140.732 179.236 135.984C190.486 128.654 194.848 122.704 194.848 122.704C194.848 122.704 195.078 118.349 188.19 116.289C181.302 114.229 153.292 103.009 153.292 103.009L152.351 106.904L174.451 122.46C174.451 122.46 163.432 131.376 154.69 131.16C154.69 131.16 156.313 137.8 148.507 138.029Z" fill="#FF748E"/>
<path opacity="0.1" d="M152.76 127.364C152.217 125.528 151.793 123.66 151.49 121.77L139.323 124.975C139.859 127.292 139.763 129.709 139.045 131.976C141.533 132.638 144.161 132.554 146.6 131.733C149.04 130.913 151.183 129.393 152.76 127.364Z" fill="black"/>
<path d="M142.654 131.732C149.881 131.732 155.739 125.89 155.739 118.682C155.739 111.475 149.881 105.633 142.654 105.633C135.428 105.633 129.569 111.475 129.569 118.682C129.569 125.89 135.428 131.732 142.654 131.732Z" fill="#FFBDC6"/>
<path opacity="0.1" d="M149.614 89.0024C153.246 89.4107 156.695 90.9686 160.271 91.8179C161.164 92.0966 162.116 92.1338 163.028 91.9258C164.416 91.4941 165.545 90.0488 166.985 90.0911C167.87 90.0911 168.655 90.7199 169.385 91.297C170.555 92.1884 171.656 93.1673 172.678 94.2252C175.144 96.8952 176.673 100.49 178.922 103.394C181.171 106.299 184.719 108.556 187.913 107.223C185.74 115.67 178.621 122.103 170.919 122.629C167.846 122.835 164.698 122.197 161.725 123.098C160.984 123.399 160.202 123.588 159.405 123.661C157.692 123.661 156.314 122.094 155.246 120.569C152.743 116.984 150.762 112.911 147.943 109.64C147.002 108.561 145.916 107.533 144.598 107.336C143.281 107.139 142.071 107.763 140.9 108.368C138.966 109.368 136.99 110.405 135.489 112.122C133.988 113.84 133.042 116.392 133.663 118.692C133.998 119.94 134.76 121.066 134.774 122.371C134.802 124.449 132.958 125.975 132.595 128.002C132.514 128.853 132.484 129.709 132.506 130.564C132.346 133.342 130.525 135.618 128.624 137.363C127.881 138.044 127.062 138.771 126.846 139.822C126.7 140.535 126.846 141.295 126.752 142.018C126.474 143.82 124.672 144.735 123.077 144.974C121.213 145.245 119.311 145.02 117.563 144.322C119.793 143.266 121.167 140.277 120.649 137.593C119.939 133.877 116.193 131.211 116.513 127.425C116.69 126.264 117.039 125.137 117.548 124.079C118.365 122.037 118.958 119.913 119.318 117.744C119.6 116.064 119.736 114.286 119.209 112.69C118.739 111.231 117.755 110.076 116.923 108.847C115.793 107.173 114.901 105.35 114.274 103.432C114.044 102.865 113.957 102.252 114.02 101.644C114.203 100.916 114.605 100.261 115.172 99.767C117.219 97.6225 119.407 95.3889 122.15 94.7789C123.459 94.5583 124.79 94.5062 126.112 94.624C128.41 94.6984 130.711 94.6011 132.995 94.3331C134.877 94.1125 138.058 94.1454 139.653 92.9253C141.14 91.7851 141.977 90.3632 143.808 89.6406C145.662 88.9601 147.655 88.741 149.614 89.0024V89.0024Z" fill="black"/>
<path opacity="0.1" d="M156.887 223.78C156.887 223.78 164.462 238.665 162.166 243.24Z" fill="black"/>
<path opacity="0.1" d="M170.621 263.586L159.527 249.556C159.527 249.556 159.527 249.64 159.527 249.8C159.527 249.8 158.887 245.257 160.999 246.783C165.629 250.124 173.035 255.6 173.195 256.543C173.355 257.486 171.694 261.254 170.621 263.586Z" fill="black"/>
<g opacity="0.1">
<path opacity="0.1" d="M154.935 131.16C154.935 131.16 155.876 135.026 152.846 136.96C157.504 136.167 157.711 132.549 157.551 130.977C156.686 131.115 155.81 131.176 154.935 131.16V131.16Z" fill="black"/>
<path opacity="0.1" d="M67.6927 185.654C67.6927 185.654 109.935 162.299 116.155 150.394C120.602 141.849 131.32 136.725 137.013 134.51C132.863 135.918 118.88 141.225 113.629 151.309C107.432 163.214 65.166 186.573 65.166 186.573L67.6927 185.654Z" fill="black"/>
<path opacity="0.1" d="M163.159 129.339C170.349 127.11 177.218 121.545 177.218 121.545L155.16 105.966L155.664 103.835L153.551 102.991L152.634 106.885L174.677 122.455C171.144 125.225 167.274 127.538 163.159 129.339V129.339Z" fill="black"/>
<path opacity="0.1" d="M163.287 182.106C166.103 181.148 168.992 180.42 171.926 179.929L171.963 179.488C169.008 180.136 166.107 181.011 163.287 182.106V182.106Z" fill="black"/>
<path opacity="0.1" d="M136.571 206.094H136.369C136.293 206.133 136.208 206.147 136.124 206.135C136.039 206.123 135.961 206.086 135.899 206.028C136.051 206.073 136.21 206.095 136.369 206.094C137.122 205.658 138.251 202.237 135.899 182.444C133.367 161.328 123.407 162.975 117.958 165.405C123.529 163.876 131.194 165.199 133.372 183.359C135.748 203.152 134.614 206.573 133.842 207.009C134.822 206.973 135.769 206.655 136.571 206.094V206.094Z" fill="black"/>
<path opacity="0.1" d="M133.842 207.014C133.682 207.015 133.524 206.993 133.371 206.948C133.433 207.006 133.512 207.043 133.596 207.055C133.68 207.067 133.766 207.052 133.842 207.014V207.014Z" fill="black"/>
</g>
<path d="M149.613 88.5426C153.245 88.9555 156.694 90.5087 160.27 91.3581C161.164 91.6352 162.115 91.6708 163.027 91.4613C164.415 91.0343 165.545 89.5843 166.984 89.6265C167.869 89.6547 168.655 90.2553 169.384 90.8325C170.554 91.7252 171.655 92.704 172.678 93.7606C175.143 96.4306 176.672 100.025 178.921 102.93C181.17 105.834 184.718 108.091 187.913 106.759C185.739 115.205 178.62 121.639 170.918 122.164C167.845 122.375 164.698 121.737 161.724 122.633C160.984 122.936 160.202 123.126 159.404 123.197C157.692 123.197 156.313 121.629 155.245 120.104C152.742 116.519 150.761 112.451 147.943 109.18C147.002 108.096 145.915 107.069 144.597 106.871C143.28 106.674 142.071 107.303 140.899 107.908C138.965 108.908 136.989 109.94 135.488 111.662C133.987 113.385 133.042 115.928 133.663 118.232C133.997 119.48 134.759 120.606 134.773 121.911C134.801 123.994 132.957 125.515 132.595 127.542C132.513 128.393 132.483 129.249 132.505 130.104C132.345 132.882 130.525 135.153 128.624 136.903C127.88 137.579 127.062 138.311 126.845 139.358C126.699 140.075 126.845 140.831 126.751 141.558C126.473 143.36 124.671 144.275 123.076 144.51C121.213 144.785 119.309 144.56 117.562 143.858C119.792 142.806 121.166 139.813 120.648 137.133C119.938 133.417 116.193 130.747 116.513 126.965C116.689 125.804 117.038 124.677 117.548 123.619C118.364 121.575 118.957 119.45 119.317 117.279C119.599 115.604 119.736 113.826 119.209 112.226C118.738 110.771 117.755 109.612 116.922 108.382C115.793 106.709 114.901 104.889 114.273 102.972C114.045 102.404 113.958 101.789 114.019 101.179C114.208 100.46 114.609 99.8141 115.172 99.3259C117.218 97.1814 119.406 94.9525 122.149 94.3378C123.458 94.121 124.789 94.0706 126.111 94.1876C128.41 94.2596 130.71 94.1624 132.995 93.8967C134.877 93.6761 138.057 93.7043 139.652 92.4889C141.139 91.3534 141.977 89.9269 143.807 89.2042C145.66 88.5191 147.653 88.2921 149.613 88.5426V88.5426Z" fill="#474463"/>
<path d="M235.815 242.991C250.385 242.991 262.197 231.211 262.197 216.68C262.197 202.149 250.385 190.37 235.815 190.37C221.245 190.37 209.434 202.149 209.434 216.68C209.434 231.211 221.245 242.991 235.815 242.991Z" fill="white"/>
<path d="M270.478 213.213C270.478 220.168 268.41 226.967 264.536 232.749C260.661 238.532 255.155 243.04 248.712 245.701C242.269 248.363 235.179 249.059 228.339 247.702C221.499 246.345 215.217 242.996 210.285 238.078C205.354 233.16 201.996 226.894 200.636 220.073C199.275 213.252 199.973 206.181 202.642 199.755C205.311 193.33 209.83 187.837 215.629 183.973C221.427 180.109 228.244 178.047 235.218 178.047C244.57 178.047 253.538 181.752 260.151 188.347C266.763 194.942 270.478 203.886 270.478 213.213ZM231.144 231.828L257.299 205.742C257.511 205.532 257.679 205.281 257.793 205.006C257.908 204.731 257.967 204.435 257.967 204.137C257.967 203.839 257.908 203.544 257.793 203.268C257.679 202.993 257.511 202.743 257.299 202.532L254.081 199.346C253.87 199.135 253.62 198.968 253.344 198.854C253.068 198.739 252.773 198.681 252.474 198.681C252.176 198.681 251.88 198.739 251.604 198.854C251.328 198.968 251.078 199.135 250.867 199.346L229.534 220.622L219.574 210.664C219.146 210.24 218.568 210.002 217.964 210.002C217.361 210.002 216.783 210.24 216.355 210.664L213.137 213.893C212.712 214.319 212.473 214.896 212.473 215.498C212.473 216.099 212.712 216.676 213.137 217.103L227.925 231.846C228.136 232.058 228.387 232.225 228.663 232.339C228.939 232.454 229.235 232.512 229.534 232.512C229.833 232.512 230.129 232.454 230.405 232.339C230.682 232.225 230.932 232.058 231.144 231.846V231.828Z" fill="#3ACC6C"/>
</g>
<defs>
<linearGradient id="paint0_linear" x1="133.052" y1="208.797" x2="133.052" y2="208.675" gradientUnits="userSpaceOnUse">
<stop stop-color="#808080" stop-opacity="0.25"/>
<stop offset="0.54" stop-color="#808080" stop-opacity="0.12"/>
<stop offset="1" stop-color="#808080" stop-opacity="0.1"/>
</linearGradient>
<linearGradient id="paint1_linear" x1="50965.2" y1="114147" x2="50965.2" y2="40332.7" gradientUnits="userSpaceOnUse">
<stop stop-color="#808080" stop-opacity="0.25"/>
<stop offset="0.54" stop-color="#808080" stop-opacity="0.12"/>
<stop offset="1" stop-color="#808080" stop-opacity="0.1"/>
</linearGradient>
<clipPath id="clip0">
<rect width="475" height="394" fill="white"/>
</clipPath>
</defs>
</svg>
